<svg width="364" height="177" viewBox="0 0 364 177" fill="none" xmlns="http://www.w3.org/2000/svg">
<path d="M363.481 46.8172C360.773 40.8887 354.144 46.1726 351.615 49.0578C349.062 51.974 346.676 55.0476 344.385 58.1721C344.291 55.7444 344.97 53.1542 345.331 50.7637C345.758 47.9339 346.043 46.0654 342.461 46.0654C337.979 46.0654 337.328 50.0556 336.473 53.7235C335.362 58.4899 334.494 63.3112 333.859 68.1616C328.152 73.3606 313.041 84.6221 307.304 74.3725C313.969 72.544 320.535 68.5216 324.011 62.4119C327.601 56.1021 325.809 47.8857 318.603 45.1934C302.716 39.2663 293.517 60.4273 295.355 72.8463C293.221 74.4061 286.896 79.344 284.558 75.8301C282.233 72.3392 283.502 66.1061 284.817 62.436C289.037 52.2391 294.213 42.4738 297.44 31.8856C299.865 23.9316 303.674 10.1077 297.671 2.84637C289.867 -6.59157 279.371 10.0151 276.759 15.9386C272.503 25.5826 270.46 36.3402 270.21 46.8421C257.292 48.0238 246.816 60.3288 246.786 73.0846C241.036 76.807 231.279 82.3905 226.792 74.3725C233.457 72.544 240.023 68.5216 243.498 62.4119C247.089 56.1021 245.296 47.8857 238.091 45.1934C222.211 39.2685 213.118 60.3038 214.848 72.7228C210.769 75.4392 206.218 78.1007 201.206 78.4879C196.112 78.8837 195.209 75.052 193.108 71.297C198.788 71.4967 204.391 70.2842 208.462 66.0217C212.918 61.357 214.831 53.5065 210.207 48.2825C205.947 43.4707 198.317 43.3695 193.064 46.5121C187.35 49.9303 184.128 56.4744 182.806 62.7751C176.756 62.4306 173.9 60.6284 173.812 60.6493C180.922 51.5919 186.828 41.6594 191.385 31.0976C194.5 23.8726 201.064 7.54741 189.588 3.89317C179.02 0.516281 172.028 12.5689 168.694 20.5529C164.222 31.2632 161.904 42.758 160.073 54.1643C158.244 53.3948 151.695 48.889 152.658 54.5029C153.231 57.8376 156.163 61.5004 158.774 63.5545C158.7 64.8256 158.499 66.3095 158.303 67.6731C154.277 71.0037 149.363 75.9744 144.044 76.9336C137.691 78.0803 140.185 65.5237 141.294 62.4306C145.514 52.2336 150.689 42.4684 153.916 31.8802C156.341 23.9262 160.152 10.1022 154.149 2.84092C146.345 -6.59702 135.848 10.0096 133.235 15.9331C128.98 25.5771 126.937 36.3347 126.686 46.8367C113.289 48.0623 102.579 61.2049 103.34 74.4219C101.961 75.693 97.5466 79.6745 95.6468 77.4429C93.4292 74.8364 95.3144 68.1938 95.8401 65.2677C96.9963 58.8272 101.033 48.997 93.0302 45.6927C77.2179 39.1637 63.8443 57.4095 61.5186 70.9751C55.7252 75.3784 43.4126 83.4078 38.3527 74.3684C44.6983 72.6275 50.8906 68.9247 54.5024 63.3257C58.3504 57.3636 57.672 48.9784 50.7205 45.6428C35.1307 38.1646 25.2426 59.0019 26.2926 71.3161C23.6683 73.1772 20.9428 75.0384 17.9492 76.2727C16.4078 76.9082 14.6 77.7226 13.6079 75.9231C12.7753 74.3435 12.3453 72.5843 12.356 70.8004V70.1608C13.5291 62.4614 18.4653 55.7499 22.105 49.0311C26.3619 41.1778 30.6221 33.1852 33.2573 24.6216C35.0787 18.7044 38.6664 5.75569 32.2461 1.30886C25.0776 -3.65819 16.6499 7.97911 13.6731 12.9207C5.18931 27.0093 0 45.1671 0 61.6116C0 69.4372 1.14254 79.0712 6.40207 85.2916C12.335 92.3078 23.6177 84.711 29.4681 81.0077C37.2535 92.8103 52.7202 87.8578 62.3466 81.3709C67.3312 92.345 80.6387 88.1923 86.9528 80.8675C88.2749 84.2008 90.4178 87.8464 94.3232 88.3821C98.7575 88.9913 102.909 86.2263 106.102 83.4876C112.521 93.0754 124.662 86.0579 130.821 80.0908C132.653 84.494 137.049 88.8941 142.264 88.0888C147.644 87.2572 152.8 83.4531 157.053 80.3119C156.386 88.5019 155.967 96.9643 158.163 104.981C159.332 109.248 161.564 114.339 166.302 115.568C171.138 116.821 175.415 114.112 178.078 110.28C182.666 103.677 183.002 95.2162 180.151 87.8555C178.064 82.4667 173.723 75.9168 167.589 74.6911C167.726 72.7957 167.979 70.9104 168.348 69.0459C168.648 67.6786 169.035 68.0667 170.184 68.3305C174.134 69.2384 178.132 70.1063 182.178 70.4409C182.548 77.8329 186.25 85.0928 193.738 87.4383C202.235 90.0984 211.236 86.1033 218.192 81.4363C225.645 92.0304 239.771 88.2976 249.058 82.469C255.11 93.217 267.754 86.4764 274.344 80.0912C276.04 84.1649 279.815 88.1855 284.585 88.1855C289.584 88.1855 294.913 84.327 298.814 81.6033C307.364 93.4562 323.562 87.1097 333.066 80.0971C333.197 82.9034 333.536 86.6902 336.63 87.875C339.754 89.0716 342.167 87.2168 343.051 84.2394C344.735 78.5619 343.566 72.4051 346.744 67.1321C349.631 62.3893 353.534 58.3398 358.175 55.2728C359.588 54.3558 362.363 53.9041 363.15 52.383C363.917 50.8981 364.198 48.3715 363.482 46.8181C363.727 47.3515 363.237 46.2861 363.482 46.8181L363.481 46.8172ZM194.601 58.3891C195.805 55.2682 198.393 53.1061 201.836 53.1061C203.506 53.1061 205.162 54.1956 204.996 56.0113C204.408 62.4719 198.412 63.7257 193.223 63.7506C193.411 61.9051 193.876 60.0979 194.601 58.3891C194.219 59.3805 194.984 57.3977 194.601 58.3891ZM12.4061 42.6096C13.3166 35.8241 15.0622 29.1759 17.6036 22.8149C18.769 19.9414 20.1235 17.0312 22.0553 14.5785C22.788 13.648 23.6848 12.6016 24.8638 12.2357C26.5183 11.7237 26.0492 14.3915 26.0492 15.3307C24.7885 28.0543 17.9698 40.6694 11.7633 51.6421C11.77 48.6199 11.9849 45.6016 12.4066 42.6087C11.9776 45.7045 12.8356 39.515 12.4066 42.6087L12.4061 42.6096ZM37.3912 64.3108C37.5804 61.3602 38.2729 58.0918 40.1723 55.7349C41.7265 53.8138 46.0788 51.5159 47.7534 54.4321C51.1054 60.3143 42.647 66.7339 37.3036 66.7339C37.3036 66.063 37.3314 65.2541 37.3948 64.3099L37.3912 64.3108ZM84.3394 66.5505C83.8835 70.2375 82.5194 74.2862 80.1823 77.2146C77.0629 81.1262 73.2231 79.1103 72.8971 74.5363C72.3628 67.0417 78.0609 53.1029 87.1401 53.1029L84.3394 66.5505ZM125.222 73.8227C123.749 76.2881 121.577 78.8697 118.429 78.5274C114.678 78.1216 114.004 74.702 114.421 71.5398C115.385 64.2413 120.156 56.9043 126.876 53.6545C126.781 58.8014 127.011 63.9491 127.565 69.0672C126.92 70.7156 126.135 72.3068 125.221 73.8241C126.078 72.4214 124.856 74.4337 125.221 73.8241L125.222 73.8227ZM137.895 53.792V53.3349C137.887 46.6004 138.311 39.8723 139.164 33.1916C139.674 28.7533 140.474 24.353 141.56 20.0186C142.236 17.4683 143.351 12.1282 146.318 11.149C151.078 9.57654 147.144 27.9504 146.678 29.7198C144.504 37.9703 141.333 45.9942 137.895 53.7934V53.792ZM173.56 100.555C173.19 101.989 171.616 106.956 169.132 105.41C167.397 104.328 167.472 100.462 167.312 98.6734C166.785 92.7319 166.714 86.7589 167.1 80.8067C171.107 84.4995 176.434 89.4039 173.56 100.553V100.555ZM172.341 45.4444C173.122 39.0107 174.602 32.6804 176.755 26.5649C177.562 24.1908 181.398 9.70365 186.479 14.1346C190.779 17.8824 184.336 27.5713 182.495 31.083C178.989 37.7419 175.237 44.2687 171.698 50.909C171.913 49.2318 172.127 47.4106 172.341 45.4444ZM225.827 64.3099C226.017 61.3592 226.711 58.0909 228.606 55.734C230.161 53.8129 234.514 51.515 236.187 54.4312C239.54 60.3134 231.081 66.733 225.739 66.733C225.739 66.0624 225.769 65.2544 225.83 64.309L225.827 64.3099ZM268.74 73.8218C267.269 76.2872 265.097 78.8688 261.947 78.5265C258.198 78.1207 257.525 74.7011 257.941 71.5389C258.905 64.2404 263.674 56.9033 270.394 53.6536C270.463 57.9383 270.639 64.5201 271.084 69.0663C270.439 70.7152 269.655 72.3066 268.739 73.8232C269.597 72.4205 268.375 74.4328 268.739 73.8232L268.74 73.8218ZM281.418 53.7911V53.334C281.411 46.5995 281.835 39.8714 282.689 33.1907C283.198 28.752 283.998 24.3512 285.084 20.0163C285.76 17.4661 286.874 12.1259 289.842 11.1467C294.601 9.57427 290.669 27.9481 290.202 29.7176C288.025 37.968 284.856 45.9919 281.418 53.7911ZM306.342 64.3103C306.531 61.3597 307.223 58.0913 309.123 55.7344C310.676 53.8133 315.029 51.5155 316.702 54.4316C320.055 60.3138 311.596 66.7335 306.254 66.7335C306.254 66.0626 306.281 65.2536 306.345 64.3094" fill="#21B6D9"/>
<path d="M14.4026 158.371C11.4703 158.371 9.31423 157.207 7.89122 155.525V157.897H2.71664V126.936H7.89122V137.673C9.31423 135.991 11.4703 134.827 14.4026 134.827C20.7414 134.827 24.3636 140.174 24.3636 146.599C24.3636 153.024 20.7414 158.371 14.4026 158.371ZM7.76186 145.952V147.289C7.76186 151.472 10.1767 153.844 13.3676 153.844C17.1192 153.844 19.1459 150.911 19.1459 146.599C19.1459 142.287 17.1192 139.355 13.3676 139.355C10.1767 139.355 7.76186 141.683 7.76186 145.952Z" fill="#9BA6B9"/>
<path d="M38.4195 160.01C37.1259 163.46 35.1423 165.831 30.4421 165.831C29.364 165.831 29.0622 165.788 28.3291 165.702V161.347C29.0191 161.433 29.4071 161.476 30.054 161.476C31.7788 161.476 32.5981 161.002 33.3312 159.191L34.1936 157.078L25.9574 135.258H31.3907L36.9534 151.127L42.3867 135.258H47.7338L38.4195 160.01Z" fill="#9BA6B9"/>
<path d="M225.586 140.394C223.562 139.229 221.248 138.647 218.642 138.647C216.036 138.647 213.817 139.248 211.774 140.446C209.731 141.649 208.123 143.248 206.939 145.257C205.756 147.262 205.164 149.467 205.164 151.867C205.164 154.268 205.713 156.53 206.81 158.554C207.908 160.577 209.397 162.191 211.287 163.388C213.172 164.586 215.353 165.188 217.821 165.188C219.983 165.188 221.878 164.701 223.505 163.723C224.899 162.887 226.011 161.78 226.875 160.434V164.572H232.225V151.867C232.225 149.366 231.623 147.118 230.425 145.128C229.223 143.138 227.614 141.563 225.591 140.394H225.586ZM225.533 155.876C224.846 157.079 223.906 158.043 222.703 158.783C221.501 159.523 220.15 159.89 218.637 159.89C217.124 159.89 215.835 159.523 214.652 158.783C213.468 158.048 212.533 157.079 211.85 155.876C211.163 154.678 210.819 153.356 210.819 151.915C210.819 150.474 211.163 149.147 211.85 147.93C212.533 146.713 213.468 145.744 214.652 145.023C215.835 144.303 217.162 143.945 218.637 143.945C220.112 143.945 221.501 144.303 222.703 145.023C223.901 145.744 224.846 146.713 225.533 147.93C226.221 149.147 226.56 150.478 226.56 151.915C226.56 153.352 226.216 154.674 225.533 155.876Z" fill="#0F213E"/>
<path d="M242.296 127.689H236.635V164.572H242.296V127.689Z" fill="#0F213E"/>
<path d="M256.131 136.948V139.32H263.701V144.15H256.131V164.572H250.471V144.15H246.381V139.32H250.471V137.005C250.471 135.149 250.857 133.483 251.63 132.013C252.404 130.543 253.535 129.369 255.024 128.515C255.377 128.314 255.749 128.138 256.131 127.985C257.391 127.479 258.847 127.231 260.503 127.231C261.357 127.231 262.183 127.312 262.97 127.489C263.219 127.546 263.467 127.603 263.701 127.675V132.796C263.538 132.738 263.371 132.681 263.204 132.633C262.498 132.423 261.772 132.318 261.018 132.318C259.505 132.318 258.317 132.696 257.444 133.45C256.565 134.204 256.131 135.373 256.131 136.948Z" fill="#0F213E"/>
<path d="M280.496 139.674C279.842 139.363 279.126 139.134 278.334 138.982C277.547 138.829 276.74 138.748 275.914 138.748C273.652 138.748 271.748 139.22 270.201 140.16C268.66 141.105 267.491 142.399 266.703 144.045C265.916 145.692 265.519 147.563 265.519 149.653V164.573H271.18V149.858C271.18 148.112 271.652 146.723 272.593 145.692C273.537 144.661 274.812 144.15 276.425 144.15C277.112 144.15 277.804 144.236 278.506 144.408C279.207 144.58 279.871 144.838 280.486 145.181V139.678L280.496 139.674Z" fill="#0F213E"/>
<path d="M301.452 140.446C299.429 139.248 297.128 138.647 294.561 138.647C291.993 138.647 289.736 139.248 287.693 140.446C285.65 141.649 284.032 143.243 282.834 145.228C281.632 147.219 281.035 149.428 281.035 151.862C281.035 154.297 281.636 156.525 282.834 158.549C284.032 160.573 285.655 162.186 287.693 163.384C289.736 164.582 292.022 165.183 294.561 165.183C297.1 165.183 299.386 164.582 301.429 163.384C303.471 162.186 305.089 160.573 306.292 158.549C307.49 156.525 308.091 154.297 308.091 151.862C308.091 149.428 307.49 147.257 306.292 145.252C305.089 143.248 303.481 141.644 301.457 140.441L301.452 140.446ZM301.4 155.881C300.713 157.084 299.782 158.048 298.598 158.788C297.415 159.527 296.069 159.895 294.561 159.895C293.053 159.895 291.75 159.527 290.547 158.788C289.344 158.053 288.404 157.084 287.717 155.881C287.029 154.683 286.686 153.361 286.686 151.92C286.686 150.478 287.029 149.152 287.717 147.935C288.399 146.718 289.344 145.749 290.547 145.028C291.745 144.307 293.086 143.949 294.561 143.949C296.035 143.949 297.415 144.307 298.598 145.028C299.782 145.749 300.717 146.718 301.4 147.935C302.087 149.152 302.426 150.483 302.426 151.92C302.426 153.356 302.082 154.678 301.4 155.881Z" fill="#0F213E"/>
<path d="M330.581 140.422C328.677 139.239 326.319 138.647 323.508 138.647C320.697 138.647 318.396 139.239 316.511 140.422C314.626 141.606 313.204 143.191 312.24 145.181C311.28 147.171 310.798 149.4 310.798 151.867V164.572H316.454V152.483C316.454 150.975 316.712 149.586 317.227 148.316C317.742 147.047 318.52 146.026 319.566 145.257C320.611 144.484 321.923 144.097 323.503 144.097C325.083 144.097 326.453 144.484 327.517 145.257C328.576 146.03 329.373 147.052 329.908 148.316C330.442 149.586 330.705 150.975 330.705 152.483V164.572H336.365V151.815C336.365 149.381 335.874 147.166 334.9 145.181C333.922 143.191 332.48 141.606 330.576 140.422H330.581Z" fill="#0F213E"/>
<path d="M347.447 144.15V155.113C347.447 156.688 347.891 157.919 348.783 158.812C349.676 159.704 350.84 160.153 352.282 160.153C353.069 160.153 353.895 160.024 354.749 159.766C354.864 159.733 354.964 159.704 355.069 159.652V164.701C354.907 164.759 354.74 164.806 354.573 164.854C353.632 165.112 352.702 165.241 351.766 165.241C349.614 165.241 347.786 164.821 346.316 163.985C344.836 163.141 343.729 161.967 342.97 160.458C342.216 158.945 341.839 157.218 341.839 155.266V144.15H337.491V139.32H341.839V132.786H347.452V139.32H355.074V144.15H347.452H347.447Z" fill="#0F213E"/>
<path d="M200.598 144.794C199.586 142.89 198.154 141.372 196.298 140.246C194.451 139.115 192.241 138.542 189.668 138.542C187.096 138.542 184.896 139.139 182.958 140.318C181.02 141.501 179.512 143.1 178.424 145.1C177.345 147.109 176.806 149.328 176.806 151.763C176.806 154.368 177.384 156.683 178.548 158.707C179.713 160.73 181.321 162.315 183.364 163.465C185.407 164.615 187.712 165.193 190.275 165.193C192.838 165.193 195.071 164.606 197.042 163.441C199.013 162.277 200.569 160.597 201.696 158.401L197.028 156.659C196.345 157.776 195.467 158.621 194.398 159.198C193.162 159.866 191.768 160.205 190.227 160.205C188.58 160.205 187.134 159.809 185.879 159.022C184.633 158.225 183.679 157.165 183.025 155.829C182.743 155.251 182.543 154.621 182.405 153.972H202.111V151.199C202.111 148.827 201.595 146.699 200.593 144.794H200.598ZM182.514 149.763C182.691 148.598 183.087 147.534 183.698 146.594C184.318 145.654 185.13 144.904 186.141 144.36C187.153 143.806 188.313 143.534 189.616 143.534C190.919 143.534 192.069 143.802 193.062 144.331C194.059 144.871 194.856 145.591 195.458 146.517C196.054 147.448 196.388 148.527 196.465 149.763H182.519H182.514Z" fill="#0F213E"/>
<path d="M167.846 127.689L167.808 142.021C167.04 141.248 166.157 140.58 165.15 140.017C163.489 139.091 161.666 138.628 159.68 138.628C157.112 138.628 154.836 139.201 152.846 140.351C150.86 141.501 149.3 143.071 148.173 145.076C147.042 147.08 146.479 149.366 146.479 151.934C146.479 154.33 147.071 156.53 148.25 158.535C149.433 160.539 151.042 162.148 153.079 163.365C155.117 164.582 157.404 165.188 159.938 165.188C162.472 165.188 164.854 164.606 166.872 163.441C168.891 162.276 170.504 160.692 171.702 158.687C172.9 156.683 173.502 154.435 173.502 151.934V127.689H167.851H167.846ZM166.82 155.891C166.133 157.089 165.193 158.048 163.995 158.769C162.797 159.489 161.441 159.847 159.938 159.847C158.434 159.847 157.136 159.489 155.957 158.769C154.774 158.048 153.843 157.093 153.156 155.891C152.469 154.693 152.13 153.375 152.13 151.934C152.13 150.493 152.473 149.171 153.156 147.954C153.838 146.737 154.774 145.773 155.957 145.052C157.141 144.331 158.468 143.973 159.938 143.973C161.408 143.973 162.797 144.331 163.995 145.052C165.193 145.773 166.133 146.737 166.82 147.954C167.502 149.171 167.846 150.498 167.846 151.934C167.846 153.371 167.502 154.693 166.82 155.891Z" fill="#0F213E"/>
<path d="M94.5914 154.325L88.6256 168.581C86.2202 168.944 83.9054 169.183 81.7339 169.293L87.7188 154.979C90.0335 154.855 92.3292 154.631 94.5866 154.325H94.5914Z" fill="#FFC940"/>
<path d="M99.4744 166.31C97.0165 166.959 94.5729 167.517 92.1865 167.975L98.119 153.786C100.62 153.352 103.044 152.837 105.354 152.259L99.4792 166.31H99.4744Z" fill="#56B2FF"/>
<path d="M137.24 142.179C137.259 150.803 120.498 160.081 103.216 165.255L109.072 151.252C119.018 148.35 126.015 144.56 126.024 142.689C126.039 140.155 114.742 135.34 96.2287 134.633L100.892 123.475C116.016 124.887 137.212 130.71 137.24 142.179Z" fill="#024EC1"/>
</svg>
